<?xml version="1.0" encoding="UTF-8"?>
<svg fill="none" viewBox="0 0 14 11" xmlns="http://www.w3.org/2000/svg">
<path d="m9.4412 9.798-1.4122-1.4131c-0.54614 0.19527-1.1365 0.23143-1.7024 0.10428-0.56589-0.12715-1.084-0.41237-1.4942-0.82249s-0.69535-0.92827-0.82249-1.4942c-0.12715-0.56589-0.09099-1.1562 0.10427-1.7024l-1.8025-1.8025c-1.491 1.3256-2.3118 2.8324-2.3118 2.8324s2.625 4.8125 7 4.8125c0.84035-0.0029 1.6712-0.178 2.4412-0.5145zm-4.8825-8.596c0.77005-0.3365 1.6009-0.51161 2.4412-0.5145 4.375 0 7 4.8125 7 4.8125s-0.8216 1.5059-2.3109 2.8332l-1.8042-1.8042c0.19522-0.54614 0.23142-1.1365 0.10427-1.7024-0.12715-0.56589-0.41237-1.084-0.82249-1.4942-0.41012-0.41012-0.92827-0.69535-1.4942-0.82249-0.56589-0.12715-1.1562-0.09099-1.7024 0.10427l-1.4114-1.4114v-8.8e-4z" fill="#000"/>
</svg>
