<?xml version="1.0" encoding="UTF-8"?>
<svg viewBox="0 0 14 15" xmlns="http://www.w3.org/2000/svg">
<path d="m9.4412 11.798-1.4122-1.4131c-0.54614 0.1952-1.1365 0.2314-1.7024 0.1042-0.56589-0.1271-1.084-0.4123-1.4942-0.82244-0.41012-0.41012-0.69535-0.92827-0.82249-1.4942-0.12715-0.56589-0.09099-1.1562 0.10427-1.7024l-1.8025-1.8025c-1.491 1.3256-2.3118 2.8324-2.3118 2.8324s2.625 4.8125 7 4.8125c0.84035-0.0029 1.6712-0.178 2.4412-0.5145zm-4.8825-8.596c0.77005-0.3365 1.6009-0.51161 2.4412-0.5145 4.375 0 7 4.8125 7 4.8125s-0.8216 1.5059-2.3109 2.8333l-1.8042-1.8043c0.19522-0.54614 0.23142-1.1365 0.10427-1.7024-0.12715-0.56589-0.41237-1.084-0.82249-1.4942-0.41012-0.41012-0.92827-0.69535-1.4942-0.82249-0.56589-0.12715-1.1562-0.09099-1.7024 0.10427l-1.4114-1.4114v-8.8e-4z"/>
<path d="m4.8346 7.1902c-0.04813 0.33627-0.01729 0.67913 0.09009 1.0014s0.28834 0.61513 0.52854 0.85533c0.24021 0.2402 0.53305 0.42116 0.85533 0.52854s0.66514 0.13823 1.0014 0.0901l-2.4762-2.4754h8.8e-4zm4.3312 0.6195-2.4754-2.4762c0.33628-0.04813 0.67914-0.01729 1.0014 0.09009s0.61512 0.28834 0.85533 0.52855c0.2402 0.2402 0.42116 0.53304 0.52854 0.85532s0.13822 0.66514 0.09009 1.0014v8.7e-4z"/>
<path d="m11.94 13.06-10.5-10.5 0.6195-0.6195 10.5 10.5-0.6195 0.6195z" clip-rule="evenodd" fill-rule="evenodd"/>
</svg>
