<?xml version="1.0" encoding="UTF-8"?>
<svg viewBox="0 0 16 16" xmlns="http://www.w3.org/2000/svg">
<path d="m8 10c1.1046 0 2-0.89543 2-2s-0.89543-2-2-2-2 0.89543-2 2 0.89543 2 2 2z"/>
<path d="m15.339 7.4562c-0.8268-1.2788-1.8996-2.365-3.1021-3.1416-1.3304-0.86-2.7991-1.3147-4.2472-1.3147-1.3288 0-2.6353 0.37969-3.8834 1.1284-1.2728 0.76344-2.4259 1.8788-3.4275 3.3147-0.11307 0.16229-0.17534 0.35452-0.1789 0.55228-0.003561 0.19775 0.051748 0.3921 0.1589 0.55835 0.82532 1.2916 1.8875 2.3794 3.0713 3.1454 1.3328 0.8634 2.7672 1.3009 4.2597 1.3009 1.4597 0 2.9315-0.4509 4.2562-1.3038 1.2019-0.774 2.2725-1.8643 3.0963-3.1537 0.1034-0.16238 0.1581-0.35104 0.1576-0.54358-6e-4 -0.19254-0.0564-0.38088-0.1608-0.54267zm-7.3387 3.5438c-0.59335 0-1.1734-0.1759-1.6667-0.5056-0.49335-0.3296-0.87787-0.79817-1.1049-1.3464s-0.28647-1.1514-0.17072-1.7333c0.11576-0.58194 0.40148-1.1165 0.82104-1.536 0.41955-0.41956 0.9541-0.70528 1.536-0.82104 0.58194-0.11575 1.1851-0.05634 1.7333 0.17072s1.0168 0.61158 1.3464 1.1049c0.3297 0.49335 0.5056 1.0734 0.5056 1.6667-9e-4 0.79537-0.3173 1.5579-0.8797 2.1203s-1.3249 0.8788-2.1203 0.8797z"/>
</svg>
