<?xml version="1.0" encoding="UTF-8"?>
<svg fill="none" viewBox="0 0 24 24" xmlns="http://www.w3.org/2000/svg">
<path d="m9.75 21.75v-5.2575c0-0.3675 0.375-0.7425 0.75-0.7425h3c0.375 0 0.75 0.375 0.75 0.75v5.25c0 0.1989 0.079 0.3897 0.2197 0.5303 0.1406 0.1407 0.3314 0.2197 0.5303 0.2197h6c0.1989 0 0.3897-0.079 0.5303-0.2197 0.1407-0.1406 0.2197-0.3314 0.2197-0.5303v-10.5c2e-4 -0.0986-0.0191-0.1962-0.0567-0.2873-0.0375-0.0911-0.0927-0.1739-0.1623-0.2437l-2.031-2.0295v-4.9395c0-0.19891-0.079-0.38968-0.2197-0.53033-0.1406-0.14065-0.3314-0.21967-0.5303-0.21967h-1.5c-0.1989 0-0.3897 0.07902-0.5303 0.21967-0.1407 0.14065-0.2197 0.33142-0.2197 0.53033v1.9395l-3.969-3.9705c-0.0697-0.06985-0.1524-0.12526-0.2435-0.16307-0.0912-0.03781-0.1888-0.05727-0.2875-0.05727-0.0986 0-0.1963 0.01946-0.2874 0.05727-0.0912 0.03781-0.1739 0.09322-0.2436 0.16307l-9 9c-0.0696 0.0698-0.12477 0.1526-0.16235 0.2437-0.03757 0.0911-0.05682 0.1887-0.05665 0.2873v10.5c0 0.1989 0.07902 0.3897 0.21967 0.5303 0.14065 0.1407 0.33142 0.2197 0.53033 0.2197h6c0.19891 0 0.38968-0.079 0.53033-0.2197 0.14065-0.1406 0.21967-0.3314 0.21967-0.5303z" fill="#fff"/>
</svg>
