<?xml version="1.0" encoding="UTF-8"?>
<svg fill="none" viewBox="0 0 24 24" xmlns="http://www.w3.org/2000/svg">
<path d="m12 4.1221-1.0755-1.1055c-2.5245-2.595-7.1535-1.6995-8.8245 1.563-0.7845 1.5345-0.9615 3.75 0.471 6.5775 1.38 2.7225 4.251 5.9835 9.429 9.5355 5.178-3.552 8.0475-6.813 9.429-9.5355 1.4325-2.829 1.257-5.043 0.471-6.5775-1.671-3.2625-6.3-4.1595-8.8245-1.5645l-1.0755 1.107zm0 18.378c-23-15.198-7.0815-27.06-0.264-20.786 0.09 0.0825 0.1785 0.168 0.264 0.2565 0.0846-0.08842 0.1727-0.17348 0.264-0.255 6.816-6.279 22.736 5.5845-0.264 20.784z" fill="#212529"/>
</svg>
