<?xml version="1.0" encoding="UTF-8"?>
<svg fill="none" viewBox="0 0 24 23" xmlns="http://www.w3.org/2000/svg">
<g clip-path="url(#a)">
<path d="m12 22.069c0.7956 0 1.5587-0.2906 2.1213-0.808 0.5626-0.5173 0.8787-1.219 0.8787-1.9506h-6c0 0.7316 0.31607 1.4333 0.87868 1.9506 0.56262 0.5174 1.3257 0.808 2.1213 0.808zm0-19.423-1.1955 0.22207c-1.3561 0.25407-2.575 0.93118-3.4505 1.9167s-1.3538 2.219-1.354 3.4916c0 0.8662-0.201 3.0304-0.6885 5.1614-0.24 1.0579-0.564 2.16-0.9945 3.1145h15.366c-0.4305-0.9545-0.753-2.0552-0.9945-3.1145-0.4875-2.131-0.6885-4.2952-0.6885-5.1614-5e-4 -1.2723-0.479-2.5054-1.3545-3.4907-0.8754-0.98526-2.0942-1.6622-3.45-1.9162l-1.1955-0.22483v0.00138zm9.33 13.906c0.3345 0.6165 0.7215 1.1048 1.17 1.3793h-21c0.4485-0.2745 0.8355-0.7628 1.17-1.3793 1.35-2.4828 1.83-7.0621 1.83-8.2759 0-3.3379 2.58-6.1241 6.0075-6.76-0.0209-0.19179 0.0021-0.38549 0.0676-0.56859 0.0654-0.18311 0.1719-0.35156 0.3125-0.4945 0.1407-0.14294 0.3123-0.25719 0.5039-0.33538 0.1916-0.078194 0.3989-0.11859 0.6085-0.11859s0.4169 0.040399 0.6085 0.11859c0.1916 0.078193 0.3632 0.19244 0.5039 0.33538 0.1406 0.14294 0.2471 0.3114 0.3125 0.4945 0.0655 0.1831 0.0885 0.3768 0.0676 0.56859 1.6954 0.3171 3.2196 1.1632 4.3144 2.3952 1.0947 1.2319 1.6929 2.7739 1.6931 4.3648 0 1.2138 0.48 5.7931 1.83 8.2759z" fill="#212529"/>
</g>
<defs>
<clipPath id="a">
<rect width="24" height="22.069" fill="#fff"/>
</clipPath>
</defs>
</svg>
