<?xml version="1.0" encoding="UTF-8"?>
<svg fill="none" viewBox="0 0 24 24" xmlns="http://www.w3.org/2000/svg">
<path d="m0 3.75c0-0.19891 0.079018-0.38968 0.21967-0.53033 0.14065-0.14065 0.33142-0.21967 0.53033-0.21967h2.25c0.1673 5e-5 0.32978 0.05603 0.4616 0.15904s0.22541 0.24714 0.2659 0.40946l0.6075 2.4315h17.415c0.1139 3e-5 0.2263 0.02602 0.3287 0.07598s0.1921 0.12259 0.2622 0.21238c0.0701 0.08978 0.1189 0.19436 0.1425 0.3058 0.0237 0.11144 0.0217 0.2268-0.0059 0.33734l-2.25 9c-0.0405 0.1623-0.1341 0.3065-0.2659 0.4095s-0.2943 0.159-0.4616 0.159h-13.5c-0.1673 0-0.32978-0.056-0.4616-0.159s-0.22541-0.2472-0.2659-0.4095l-2.8575-11.432h-1.665c-0.19891 0-0.38968-0.07902-0.53033-0.21967-0.14065-0.14065-0.21967-0.33142-0.21967-0.53033zm4.71 3.75 1.875 7.5h12.33l1.875-7.5h-16.08zm2.79 12c-0.39782 0-0.77936 0.158-1.0607 0.4393s-0.43934 0.6629-0.43934 1.0607 0.15804 0.7794 0.43934 1.0607 0.66284 0.4393 1.0607 0.4393 0.77936-0.158 1.0607-0.4393 0.43934-0.6629 0.43934-1.0607-0.15804-0.7794-0.43934-1.0607-0.66284-0.4393-1.0607-0.4393zm-3 1.5c0-0.7956 0.31607-1.5587 0.87868-2.1213s1.3257-0.8787 2.1213-0.8787 1.5587 0.3161 2.1213 0.8787c0.56258 0.5626 0.87868 1.3257 0.87868 2.1213s-0.3161 1.5587-0.87868 2.1213c-0.56261 0.5626-1.3257 0.8787-2.1213 0.8787s-1.5587-0.3161-2.1213-0.8787-0.87868-1.3257-0.87868-2.1213zm13.5-1.5c-0.3978 0-0.7794 0.158-1.0607 0.4393s-0.4393 0.6629-0.4393 1.0607 0.158 0.7794 0.4393 1.0607 0.6629 0.4393 1.0607 0.4393 0.7794-0.158 1.0607-0.4393 0.4393-0.6629 0.4393-1.0607-0.158-0.7794-0.4393-1.0607-0.6629-0.4393-1.0607-0.4393zm-3 1.5c0-0.7956 0.3161-1.5587 0.8787-2.1213s1.3257-0.8787 2.1213-0.8787 1.5587 0.3161 2.1213 0.8787 0.8787 1.3257 0.8787 2.1213-0.3161 1.5587-0.8787 2.1213-1.3257 0.8787-2.1213 0.8787-1.5587-0.3161-2.1213-0.8787-0.8787-1.3257-0.8787-2.1213z" fill="#212529"/>
</svg>
