<?xml version="1.0" encoding="UTF-8"?>
<svg fill="none" viewBox="0 0 24 24" xmlns="http://www.w3.org/2000/svg">
<path d="m12 12c1.1935 0 2.3381-0.4741 3.182-1.318 0.8439-0.84393 1.318-1.9885 1.318-3.182s-0.4741-2.3381-1.318-3.182-1.9885-1.318-3.182-1.318-2.3381 0.47411-3.182 1.318-1.318 1.9885-1.318 3.182 0.47411 2.3381 1.318 3.182c0.84391 0.8439 1.9885 1.318 3.182 1.318zm3-4.5c0 0.79565-0.3161 1.5587-0.8787 2.1213-0.5626 0.56258-1.3257 0.87868-2.1213 0.87868s-1.5587-0.3161-2.1213-0.87868c-0.56261-0.56261-0.87868-1.3257-0.87868-2.1213s0.31607-1.5587 0.87868-2.1213c0.56262-0.56261 1.3257-0.87868 2.1213-0.87868s1.5587 0.31607 2.1213 0.87868 0.8787 1.3257 0.8787 2.1213zm6 12c0 1.5-1.5 1.5-1.5 1.5h-15s-1.5 0-1.5-1.5 1.5-6 9-6 9 4.5 9 6zm-1.5-6e-3c-0.0015-0.369-0.231-1.479-1.248-2.496-0.978-0.978-2.8185-1.998-6.252-1.998-3.435 0-5.274 1.02-6.252 1.998-1.017 1.017-1.245 2.127-1.248 2.496h15z" fill="#212529"/>
</svg>
