<?xml version="1.0" encoding="UTF-8"?>
<svg fill="none" viewBox="0 0 24 24" xmlns="http://www.w3.org/2000/svg">
<path d="m18.204 0.489c0.3316-0.082945 0.6777-0.089253 1.0121-0.018445 0.3344 0.070807 0.6483 0.21687 0.9178 0.4271 0.2695 0.21023 0.4875 0.4791 0.6376 0.7862 0.1501 0.30709 0.2282 0.64435 0.2285 0.98615v1.83h0.75c0.5967 0 1.169 0.23705 1.591 0.65901 0.4219 0.42196 0.659 0.99425 0.659 1.591v13.5c0 0.5967-0.2371 1.169-0.659 1.591-0.422 0.422-0.9943 0.659-1.591 0.659h-19.5c-0.59674 0-1.169-0.237-1.591-0.659-0.42196-0.422-0.65901-0.9943-0.65901-1.591v-13.5c-2.0934e-4 -0.57922 0.22296-1.1362 0.62307-1.555 0.4001-0.41882 0.94631-0.66721 1.5249-0.69347l16.056-4.0125zm-9.861 4.011h11.157v-1.83c-3e-4 -0.1138-0.0264-0.22604-0.0765-0.32824-0.05-0.10219-0.1227-0.19165-0.2124-0.2616-0.0898-0.06996-0.1943-0.11857-0.3056-0.14216-0.1114-0.02359-0.2266-0.02154-0.337 6e-3l-10.226 2.556zm-6.093 1.5c-0.19891 0-0.38968 0.07902-0.53033 0.21967s-0.21967 0.33142-0.21967 0.53033v13.5c0 0.1989 0.07902 0.3897 0.21967 0.5303 0.14065 0.1407 0.33142 0.2197 0.53033 0.2197h19.5c0.1989 0 0.3897-0.079 0.5303-0.2197 0.1407-0.1406 0.2197-0.3314 0.2197-0.5303v-13.5c0-0.19891-0.079-0.38968-0.2197-0.53033-0.1406-0.14065-0.3314-0.21967-0.5303-0.21967h-19.5z" fill="#212529"/>
</svg>
