<?xml version="1.0" encoding="UTF-8"?>
<svg fill="none" viewBox="0 0 16 14" xmlns="http://www.w3.org/2000/svg">
<path d="m16 7.0003c0 0.26521-0.1053 0.51957-0.2929 0.7071-0.1875 0.18754-0.4418 0.2929-0.7071 0.2929h-11.586l4.294 4.292c0.09298 0.093 0.16673 0.2033 0.21705 0.3248s0.07622 0.2517 0.07622 0.3832-0.0259 0.2617-0.07622 0.3832c-0.05032 0.1214-0.12407 0.2318-0.21705 0.3248-0.09297 0.093-0.20335 0.1667-0.32483 0.217-0.12148 0.0504-0.25168 0.0762-0.38317 0.0762-0.13148 0-0.26168-0.0258-0.38316-0.0762-0.12148-0.0503-0.23186-0.124-0.32484-0.217l-6-6c-0.093126-0.09289-0.16701-0.20325-0.21742-0.32474-0.050413-0.12149-0.076362-0.25173-0.076362-0.38326-1e-8 -0.13154 0.025949-0.26178 0.076362-0.38327 0.050413-0.12149 0.1243-0.23184 0.21742-0.32473l6-6c0.18778-0.18777 0.44245-0.29326 0.708-0.29326 0.26556 0 0.52023 0.10549 0.708 0.29326 0.18778 0.18777 0.29327 0.44245 0.29327 0.708 0 0.26555-0.10549 0.52022-0.29327 0.708l-4.294 4.292h11.586c0.2653 0 0.5196 0.10535 0.7071 0.29289 0.1876 0.18754 0.2929 0.44189 0.2929 0.70711z" clip-rule="evenodd" fill="#000" fill-rule="evenodd"/>
</svg>
