<?xml version="1.0" encoding="UTF-8"?>
<svg viewBox="0 0 231 63" xmlns="http://www.w3.org/2000/svg">
<circle cx="29.5" cy="31.5" r="29.5"/>
<path d="m21.5 19.5c6.4-3.6 12-7 15-8.5 2.5-1.5 3.6159 4.1913 1.5 8-2.116 3.8087-8 6-8 6s13-3 13.5 8.5c0.1304 3-2 6.5-3.5 7.5s-14.5 8.75-16 9.5c-1.7583 0.8792-2.5-1.5-2.5-4.5 0-7 8-9.5 8-9.5-7 1-11.5-1.5-12.5-9-0.3334-2.5 1.5-6.3125 4.4999-8z" fill="#fff"/>
<path d="m94.803 23.058c-0.1478-1.4895-0.7818-2.6467-1.902-3.4716-1.1203-0.8248-2.6407-1.2372-4.5611-1.2372-1.3049 0-2.4067 0.1847-3.3054 0.554-0.8987 0.357-1.5881 0.8556-2.0682 1.4957-0.4678 0.6402-0.7017 1.3665-0.7017 2.179-0.0246 0.6771 0.117 1.268 0.4247 1.7728 0.3201 0.5047 0.7571 0.9417 1.3111 1.311 0.554 0.357 1.1941 0.671 1.9205 0.9418 0.7263 0.2585 1.5018 0.4801 2.3267 0.6648l3.3977 0.8125c1.6496 0.3693 3.1638 0.8617 4.5426 1.4772 1.3788 0.6156 2.5729 1.3727 3.5824 2.2713 1.0091 0.8987 1.7911 1.9574 2.3451 3.1762 0.566 1.2187 0.856 2.616 0.868 4.1917-0.012 2.3144-0.603 4.3211-1.773 6.0199-1.157 1.6866-2.8312 2.9977-5.0225 3.9333-2.179 0.9233-4.8073 1.3849-7.8849 1.3849-3.0531 0-5.7122-0.4678-7.9773-1.4034-2.2529-0.9356-4.0133-2.3205-5.2813-4.1548-1.2556-1.8466-1.9143-4.1302-1.9758-6.8509h7.7372c0.0862 1.268 0.4493 2.3267 1.0895 3.1762 0.6524 0.8371 1.5203 1.4711 2.6037 1.9019 1.0956 0.4186 2.3328 0.6279 3.7116 0.6279 1.3542 0 2.5299-0.197 3.527-0.5909 1.0095-0.394 1.7912-0.9418 2.3452-1.6435s0.831-1.508 0.831-2.419c0-0.8495-0.2524-1.5635-0.7572-2.1421-0.4924-0.5786-1.2187-1.071-2.1789-1.4772-0.9479-0.4063-2.1113-0.7756-3.4901-1.108l-4.1179-1.0341c-3.1884-0.7756-5.7059-1.9881-7.5525-3.6378-1.8466-1.6496-2.7638-3.8717-2.7515-6.6662-0.0123-2.2897 0.5971-4.2902 1.8282-6.0014 1.2433-1.7112 2.9484-3.0469 5.115-4.0071 2.1667-0.9602 4.6288-1.4403 7.3864-1.4403 2.8068 0 5.2566 0.4801 7.3494 1.4403 2.1051 0.9602 3.7424 2.2959 4.9117 4.0071 1.17 1.7112 1.773 3.6932 1.81 5.946h-7.6634zm21.277 10.544v16.398h-7.867v-37.818h7.645v14.459h0.333c0.64-1.6742 1.674-2.9853 3.102-3.9332 1.428-0.9602 3.219-1.4404 5.374-1.4404 1.969 0 3.687 0.4309 5.152 1.2927 1.477 0.8494 2.622 2.0743 3.434 3.6747 0.825 1.588 1.231 3.49 1.219 5.7059v18.06h-7.867v-16.656c0.013-1.7482-0.43-3.1085-1.329-4.081-0.886-0.9726-2.13-1.4588-3.73-1.4588-1.071 0-2.019 0.2277-2.844 0.6832-0.812 0.4555-1.453 1.1203-1.92 1.9943-0.456 0.8618-0.69 1.902-0.702 3.1208zm37.398 16.952c-2.868 0-5.349-0.6094-7.442-1.8281-2.08-1.2311-3.687-2.9423-4.819-5.1336-1.133-2.2036-1.699-4.758-1.699-7.6633 0-2.9299 0.566-5.4906 1.699-7.6818 1.132-2.2036 2.739-3.9148 4.819-5.1336 2.093-1.231 4.574-1.8466 7.442-1.8466s5.343 0.6156 7.423 1.8466c2.093 1.2188 3.706 2.93 4.838 5.1336 1.133 2.1912 1.699 4.7519 1.699 7.6818 0 2.9053-0.566 5.4597-1.699 7.6633-1.132 2.1913-2.745 3.9025-4.838 5.1336-2.08 1.2187-4.555 1.8281-7.423 1.8281zm0.037-6.0938c1.305 0 2.394-0.3693 3.268-1.1079 0.874-0.751 1.533-1.7728 1.976-3.0654 0.456-1.2926 0.683-2.7637 0.683-4.4133s-0.227-3.1208-0.683-4.4134c-0.443-1.2926-1.102-2.3144-1.976-3.0653-0.874-0.751-1.963-1.1264-3.268-1.1264-1.317 0-2.425 0.3754-3.324 1.1264-0.886 0.7509-1.557 1.7727-2.013 3.0653-0.443 1.2926-0.665 2.7638-0.665 4.4134s0.222 3.1207 0.665 4.4133c0.456 1.2926 1.127 2.3144 2.013 3.0654 0.899 0.7386 2.007 1.1079 3.324 1.1079zm31.964 6.0938c-2.917 0-5.429-0.5909-7.534-1.7728-2.092-1.1941-3.705-2.8806-4.838-5.0596-1.132-2.1913-1.699-4.7827-1.699-7.7742 0-2.9176 0.567-5.4782 1.699-7.6818 1.133-2.2036 2.727-3.9209 4.783-5.152 2.068-1.231 4.493-1.8466 7.275-1.8466 1.872 0 3.614 0.3017 5.226 0.9049 1.625 0.5909 3.041 1.4834 4.247 2.6775 1.219 1.1942 2.167 2.6961 2.844 4.5057 0.677 1.7974 1.016 3.9025 1.016 6.3154v2.1605h-23.95v-4.875h16.545c0-1.1326-0.246-2.1359-0.739-3.01-0.492-0.874-1.175-1.5573-2.049-2.0497-0.862-0.5047-1.865-0.7571-3.01-0.7571-1.194 0-2.253 0.277-3.176 0.831-0.911 0.5416-1.625 1.2741-2.142 2.1974-0.517 0.911-0.782 1.9266-0.794 3.0469v4.6349c0 1.4034 0.258 2.616 0.775 3.6378 0.529 1.0218 1.274 1.8097 2.234 2.3637 0.961 0.5539 2.099 0.8309 3.417 0.8309 0.874 0 1.674-0.1231 2.4-0.3693 0.727-0.2462 1.348-0.6155 1.865-1.108 0.517-0.4924 0.911-1.0956 1.182-1.8096l7.276 0.4801c-0.37 1.7481-1.127 3.2746-2.272 4.5795-1.132 1.2927-2.597 2.3021-4.395 3.0285-1.785 0.714-3.847 1.071-6.186 1.071zm26.24-0.0185c-1.809 0-3.422-0.3139-4.838-0.9417-1.415-0.6402-2.536-1.582-3.36-2.8253-0.813-1.2557-1.219-2.8192-1.219-4.6904 0-1.5757 0.289-2.8991 0.868-3.9701 0.578-1.0711 1.366-1.9328 2.363-2.5853 0.998-0.6524 2.13-1.1449 3.398-1.4772 1.28-0.3324 2.622-0.5663 4.026-0.7017 1.649-0.1724 2.979-0.3324 3.988-0.4802 1.01-0.16 1.742-0.3939 2.198-0.7017 0.455-0.3077 0.683-0.7632 0.683-1.3664v-0.1108c0-1.1695-0.369-2.0744-1.108-2.7145-0.726-0.6402-1.76-0.9603-3.102-0.9603-1.416 0-2.542 0.314-3.379 0.9418-0.838 0.6155-1.392 1.3911-1.662 2.3267l-7.276-0.5909c0.369-1.7235 1.096-3.2131 2.179-4.4687 1.083-1.268 2.481-2.2406 4.192-2.9177 1.723-0.6894 3.718-1.0341 5.983-1.0341 1.575 0 3.084 0.1847 4.524 0.554 1.452 0.3693 2.739 0.9418 3.859 1.7174 1.133 0.7755 2.025 1.7727 2.678 2.9914 0.652 1.2065 0.978 2.653 0.978 4.3395v19.131h-7.46v-3.9332h-0.221c-0.456 0.8863-1.065 1.668-1.828 2.3451-0.764 0.6648-1.681 1.188-2.752 1.5696-1.071 0.3694-2.308 0.554-3.712 0.554zm2.253-5.429c1.157 0 2.179-0.2277 3.066-0.6832 0.886-0.4678 1.582-1.0956 2.086-1.8835 0.505-0.7879 0.757-1.6804 0.757-2.6776v-3.0099c-0.246 0.16-0.584 0.3077-1.015 0.4432-0.419 0.1231-0.893 0.24-1.422 0.3508-0.529 0.0985-1.059 0.1908-1.588 0.277-0.53 0.0739-1.01 0.1416-1.441 0.2031-0.923 0.1354-1.729 0.3509-2.419 0.6463-0.689 0.2955-1.224 0.6956-1.606 1.2003-0.382 0.4924-0.573 1.108-0.573 1.8466 0 1.071 0.388 1.8897 1.164 2.456 0.788 0.5539 1.785 0.8309 2.991 0.8309z" fill="#152536"/>
</svg>
