<?xml version="1.0" encoding="UTF-8"?>
<svg fill="none" viewBox="0 0 24 24" xmlns="http://www.w3.org/2000/svg">
<path d="m12 1.5c0.9946 0 1.9484 0.39509 2.6517 1.0984 0.7032 0.70326 1.0983 1.6571 1.0983 2.6516v0.75h-7.5v-0.75c0-0.99456 0.39509-1.9484 1.0984-2.6516 0.70325-0.70326 1.657-1.0984 2.6516-1.0984zm5.25 4.5v-0.75c0-1.3924-0.5531-2.7277-1.5377-3.7123-0.9846-0.98457-2.3199-1.5377-3.7123-1.5377s-2.7277 0.55312-3.7123 1.5377c-0.98457 0.98457-1.5377 2.3199-1.5377 3.7123v0.75h-5.25v15c0 0.7956 0.31607 1.5587 0.87868 2.1213s1.3257 0.8787 2.1213 0.8787h15c0.7956 0 1.5587-0.3161 2.1213-0.8787s0.8787-1.3257 0.8787-2.1213v-15h-5.25zm-14.25 1.5h18v13.5c0 0.3978-0.158 0.7794-0.4393 1.0607s-0.6629 0.4393-1.0607 0.4393h-15c-0.39782 0-0.77936-0.158-1.0607-0.4393s-0.43934-0.6629-0.43934-1.0607v-13.5z" fill="#fff"/>
</svg>
